<svg width="1995" height="357" viewBox="0 0 1995 357" fill="none" xmlns="http://www.w3.org/2000/svg">
<path d="M1994 1.00003H1044H0.5V52C0.5 52 9.66667 56.3333 20 42C80.8 293.2 281.333 263 396.5 211.5C401.3 324.7 504.833 304.167 564.5 284.5C587 365.5 676.5 326 676.5 300.5C750.5 409 973 340 948.5 249C1013.3 273 1056.67 259 1060 234C1081.6 288.4 1127.67 266.667 1148 249C1144 289 1179.67 292.333 1198 289C1184.5 352.5 1282 348.5 1263.5 305.5C1285.5 345 1358.33 325 1346 294C1370.5 309.5 1400 295 1388 271C1480.8 302.2 1476 236 1462 199C1479.6 217.4 1503 212.5 1504.5 192.5C1504.5 222 1563 230.5 1563 199C1641.5 209.5 1647.5 160.803 1634.5 132.47C1778 188 1714.76 63.2451 1744.5 91.0001C1796.5 139.53 1946 124.667 1994 91.0001V1.00003Z" fill="#E8DCCA" stroke="black"/>
</svg>
