<svg width="" height="" viewBox="0 0 171 171" fill="none" xmlns="http://www.w3.org/2000/svg">
<path d="M57.4667 7.46667C39.7333 12.2667 20.5333 27.6 12.6667 43.3333C7.06666 54.6667 7.06666 64.8 12.6667 70.6667C17.6 75.8667 26.4 78.4 42.9333 79.6L55.8667 80.4L56.8 87.7333C57.8667 96.8 55.7333 124.4 52.5333 140.8C50.2667 152.667 50.2667 153.067 52.8 157.467C56 162.933 61.7333 165.2 72 165.2C82.2667 165.2 88 162.933 91.2 157.467C93.6 153.2 93.7333 152.533 91.7333 142.4L89.7333 131.733L94.5333 132.533C97.2 132.933 101.333 133.333 103.733 133.333C107.467 133.333 108 133.733 108 136.8C108 138.667 107.067 143.6 105.867 147.6C104.667 151.6 104.133 156.4 104.533 158.133C106.8 167.067 130.133 167.867 134.667 159.333C136.133 156.533 136.133 154.8 134.267 148C132.933 143.6 132 138.533 132 136.667C132 133.733 132.533 133.333 137.333 133.333C146.133 133.333 156.267 130.533 159.6 127.2C163.733 122.933 163.6 116.933 158.8 108.533C145.067 84.8 114.533 78.6667 92.5333 95.4667L86.6667 100V96.1333C86.6667 94.1333 87.0667 89.7333 87.4667 86.4L88.2667 80.4L101.2 79.6C117.6 78.4 126.4 75.8667 131.333 70.6667C134.8 67.0667 135.333 65.4667 135.333 58.9333C135.333 48.5333 129.867 37.8667 118.667 26.6667C100.933 8.93334 78.2667 1.86667 57.4667 7.46667ZM95.4667 16.5333C113.333 24.9333 128.667 43.3333 130.4 58C130.933 62.9333 130.533 64.2667 127.6 67.2C121.467 73.3333 115.867 74 72 74C28.1333 74 22.5333 73.3333 16.4 67.2C3.99999 54.8 32.1333 18.9333 59.7333 12C62.4 11.3333 69.3333 10.9333 75.0667 11.2C83.6 11.7333 87.2 12.6667 95.4667 16.5333ZM81.8667 93.8667C81.6 101.867 80.5333 109.733 79.3333 112.533C76.4 119.333 76.8 123.6 80.6667 127.467C83.0667 129.867 84.6667 133.733 86.1333 141.467C88.1333 151.067 88.1333 152.267 86.1333 155.333C83.6 159.2 77.4667 160.667 67.7333 159.733C59.7333 158.933 55.3333 154.933 56.4 149.333C60.8 124.667 61.7333 117.067 61.8667 99.7333L62 80H72.2667H82.5333L81.8667 93.8667ZM136 94.6667C146.8 100 157.333 112.533 157.333 119.867C157.333 121.333 155.733 123.6 153.733 124.933C150.8 126.933 146.267 127.333 127.733 127.733C101.2 128.4 89.2 127.333 85.2 124.133C76.9333 117.467 92.5333 97.7333 110.667 91.8667C116.4 90 129.6 91.4667 136 94.6667ZM126.667 136.933C126.667 138.933 127.733 144 128.933 148.4C131.067 156 131.067 156.4 128.667 158.133C125.467 160.533 114.533 160.533 111.333 158.133C108.933 156.4 108.933 156 111.067 148.4C112.267 144 113.333 138.933 113.333 136.933C113.333 133.467 113.6 133.333 120 133.333C126.4 133.333 126.667 133.467 126.667 136.933Z" fill="white"/>
</svg>
