<svg width="" height="" viewBox="0 0 171 171" fill="none" xmlns="http://www.w3.org/2000/svg">
<g clip-path="url(#clip0_3_11)">
<path d="M64 60.6667C56.4 62.6667 27.8667 67.0667 18 67.7333L5.99999 68.6667L2.79999 78C0.666657 84.1333 -0.133343 88.6667 0.39999 90.9333C1.46666 95.2 8.66666 102.667 11.7333 102.667C12.9333 102.667 15.6 104.267 17.7333 106.267C23.2 111.6 32.8 111.6 38.2667 106.267L42.1333 102.667H79.8667H117.6L122.267 106.667C128.8 112.4 136 112 143.333 105.2C145.467 103.333 148.667 102.667 158 102.4L170 102L170.4 97.2C170.667 94 169.867 91.4667 168 89.0667C164.667 84.6667 151.333 78.2667 139.867 75.3333C135.2 74.1333 124.4 70.4 116 67.0667C100.933 61.0667 100.4 60.9333 83.3333 60.5333C73.8667 60.2667 65.0667 60.4 64 60.6667ZM72 64.6667C72 64.9333 71.3333 66.8 70.4 68.6667C69.0667 71.6 68.1333 72.1333 64.8 71.4667C62.5333 71.0667 56.8 70.4 52 69.8667C45.3333 69.0667 44.1333 68.6667 46.4 67.8667C51.7333 65.8667 72 63.3333 72 64.6667ZM111.867 69.4667C122.933 73.8667 122.933 73.8667 118.667 75.0667C115.467 75.8667 114 75.6 112.933 74.2667C112 73.2 110 71.8667 108.267 71.3333C105.733 70.6667 104.933 71.0667 104.4 73.3333C103.733 75.8667 102.933 76.1333 98.1333 75.4667C95.0667 75.0667 88.2667 74.4 83.0667 73.8667C77.7333 73.3333 73.3333 72.4 73.3333 71.7333C73.3333 71.0667 74.4 69.0667 75.6 67.2C77.7333 63.7333 78.1333 63.7333 89.2 64.2667C98.1333 64.8 103.2 66 111.867 69.4667ZM37.0667 87.4667C41.2 92.2667 40.9333 98 36.1333 102.8C26.9333 111.867 12.5333 102.4 17.4667 90.4C20.8 82.4 31.2 80.8 37.0667 87.4667ZM139.2 87.3333C146.533 94.1333 141.733 106.667 131.733 106.667C126.8 106.533 123.867 104.8 121.6 100.4C119.067 95.7333 119.733 92 123.867 87.8667C128.8 82.9333 134.267 82.8 139.2 87.3333Z" fill="white"/>
<path d="M22 91.2C17.8667 97.4667 25.0667 105.067 31.7333 101.467C35.6 99.3333 36.6667 95.0667 34.1333 91.3333C31.2 86.8 24.8 86.8 22 91.2Z" fill="white"/>
<path d="M126.267 90.4C123.333 93.6 123.467 97.7333 126.4 100.4C131.333 104.933 138.667 101.867 138.667 95.3333C138.667 88.6667 130.667 85.6 126.267 90.4Z" fill="white"/>
</g>
<defs>
<clipPath id="clip0_3_11">
<rect width="170.667" height="170.667" fill="white"/>
</clipPath>
</defs>
</svg>
