<svg width="" height="" viewBox="0 0 339 339" fill="none" xmlns="http://www.w3.org/2000/svg">
<rect width="339" height="339" fill="#1E1E1E"/>
<path d="M159.344 282.041L152.825 275.522C157.385 268.619 160.565 260.899 162.19 252.788H174.5L190.688 236.594V233.769C190.688 232.083 190.018 230.466 188.826 229.274C187.634 228.082 186.017 227.413 184.331 227.413H162.155C160.529 219.301 157.349 211.581 152.79 204.678L168.575 188.894C169.757 187.703 170.42 186.094 170.42 184.416C170.42 182.738 169.757 181.129 168.575 179.938L158.977 170.34C157.786 169.159 156.177 168.496 154.499 168.496C152.822 168.496 151.212 169.159 150.022 170.34L134.237 186.125C127.336 181.567 119.619 178.387 111.51 176.76V154.669C111.51 152.983 110.84 151.366 109.648 150.174C108.456 148.982 106.839 148.312 105.154 148.312H92.5188C90.833 148.312 89.2162 148.982 88.0242 150.174C86.8322 151.366 86.1625 152.983 86.1625 154.669V176.838C78.0538 178.465 70.3363 181.645 63.4354 186.203L47.6931 170.39C46.5024 169.208 44.8929 168.545 43.2154 168.545C41.5379 168.545 39.9284 169.208 38.7378 170.39L29.1399 179.988C27.9582 181.178 27.295 182.788 27.295 184.465C27.295 186.143 27.9582 187.752 29.1399 188.943L44.9246 204.728C40.3655 211.631 37.1854 219.351 35.5597 227.462H13.4187C11.733 227.462 10.1162 228.132 8.9242 229.324C7.73217 230.516 7.0625 232.132 7.0625 233.818V246.481C7.0625 248.167 7.73217 249.784 8.9242 250.976C10.1162 252.168 11.733 252.837 13.4187 252.837H35.595C37.2207 260.949 40.4008 268.669 44.9599 275.572L29.1399 291.307C27.9582 292.498 27.295 294.107 27.295 295.785C27.295 297.462 27.9582 299.072 29.1399 300.262L38.7378 309.86C39.9284 311.042 41.5379 311.705 43.2154 311.705C44.8929 311.705 46.5024 311.042 47.6931 309.86L63.4777 294.075C70.379 298.633 78.0963 301.813 86.2049 303.44V325.581C86.2049 327.267 86.8745 328.884 88.0666 330.076C89.2586 331.268 90.8753 331.938 92.5611 331.938H105.231C106.917 331.938 108.534 331.268 109.726 330.076C110.918 328.884 111.588 327.267 111.588 325.581V303.405C119.696 301.778 127.413 298.598 134.315 294.04L149.852 309.578L159.344 282.041ZM98.875 264.844C93.9861 264.844 89.207 263.394 85.142 260.678C81.077 257.962 77.9088 254.101 76.0378 249.584C74.1669 245.068 73.6774 240.098 74.6312 235.303C75.585 230.508 77.9392 226.103 81.3962 222.646C84.8532 219.189 89.2576 216.835 94.0526 215.881C98.8476 214.927 103.818 215.417 108.334 217.288C112.851 219.159 116.712 222.327 119.428 226.392C122.144 230.457 123.594 235.236 123.594 240.125C123.594 246.681 120.989 252.968 116.354 257.604C111.718 262.239 105.431 264.844 98.875 264.844Z" fill="white"/>
<path d="M169.422 149.725C175.017 157.899 182.14 164.913 190.398 170.383L180.369 194.967C179.61 196.83 179.621 198.918 180.401 200.773C181.181 202.627 182.666 204.095 184.529 204.855L198.569 210.583C200.432 211.342 202.52 211.331 204.375 210.55C206.229 209.77 207.697 208.286 208.457 206.423L218.486 181.838C227.331 183.471 236.395 183.526 245.259 182.001L274.131 153.129C280.241 146.944 288.474 143.314 297.162 142.973H298.638C303.084 142.955 307.49 143.819 311.6 145.516C315.71 147.214 319.442 149.71 322.58 152.861L328.166 158.447C329.904 157.66 331.278 156.241 332.008 154.478L337.736 140.438C338.113 139.516 338.305 138.529 338.3 137.533C338.296 136.537 338.095 135.551 337.709 134.633C337.323 133.715 336.761 132.882 336.053 132.181C335.345 131.48 334.505 130.926 333.583 130.55L308.998 120.522C310.86 110.794 310.824 100.799 308.893 91.0851L333.541 80.7173C335.394 79.9365 336.861 78.452 337.619 76.59C338.378 74.7281 338.367 72.6409 337.587 70.7874L331.274 55.7938C330.887 54.8763 330.324 54.044 329.615 53.3444C328.907 52.6448 328.068 52.0916 327.146 51.7165C326.224 51.3413 325.237 51.1515 324.241 51.158C323.245 51.1644 322.261 51.367 321.344 51.754L296.703 62.15C291.112 53.9732 283.992 46.9559 275.734 41.4851L285.756 16.8794C286.133 15.9576 286.325 14.9704 286.32 13.9744C286.316 12.9784 286.115 11.9931 285.729 11.0748C285.343 10.1564 284.781 9.32317 284.073 8.62259C283.365 7.92202 282.525 7.36788 281.603 6.99188L267.556 1.26419C265.693 0.504667 263.605 0.516234 261.75 1.29635C259.896 2.07646 258.428 3.56122 257.668 5.424L247.647 30.0086C237.919 28.1454 227.924 28.1814 218.21 30.1145L207.842 5.47344C207.458 4.55412 206.896 3.71966 206.188 3.01784C205.481 2.31601 204.642 1.7606 203.72 1.38339C202.797 1.00619 201.81 0.814603 200.813 0.819598C199.817 0.824593 198.831 1.02607 197.912 1.4125L182.919 7.72638C181.068 8.50982 179.604 9.99545 178.848 11.8572C178.092 13.7189 178.106 15.8045 178.886 17.6563L189.275 42.2973C181.1 47.8881 174.085 55.0086 168.617 63.2659L144.004 53.2442C143.082 52.8672 142.095 52.6757 141.098 52.6807C140.102 52.6858 139.116 52.8873 138.198 53.2737C137.28 53.66 136.446 54.2237 135.746 54.9324C135.046 55.6412 134.492 56.4811 134.117 57.404L128.389 71.4443C128.012 72.3661 127.82 73.3532 127.825 74.3492C127.829 75.3452 128.03 76.3306 128.416 77.2489C128.802 78.1672 129.364 79.0005 130.072 79.701C130.78 80.4016 131.62 80.9557 132.542 81.3318L157.126 91.3605C155.264 101.088 155.3 111.083 157.232 120.797L132.584 131.165C131.666 131.551 130.833 132.114 130.133 132.822C129.433 133.53 128.879 134.369 128.503 135.291C128.127 136.213 127.937 137.2 127.943 138.196C127.948 139.192 128.151 140.177 128.538 141.095L134.844 156.074C135.23 156.992 135.793 157.825 136.501 158.526C137.209 159.226 138.048 159.78 138.97 160.156C139.893 160.532 140.88 160.722 141.876 160.716C142.872 160.71 143.857 160.508 144.774 160.121L169.422 149.725ZM233.062 69.2125C240.326 69.2125 247.426 71.3664 253.466 75.4018C259.505 79.4372 264.212 85.1728 266.992 91.8835C269.772 98.5941 270.499 105.978 269.082 113.102C267.665 120.226 264.167 126.77 259.031 131.906C253.895 137.042 247.351 140.54 240.227 141.957C233.103 143.374 225.719 142.647 219.008 139.867C212.298 137.087 206.562 132.38 202.527 126.341C198.491 120.301 196.337 113.201 196.337 105.938C196.337 96.1974 200.207 86.8563 207.094 79.969C213.981 73.0817 223.322 69.2125 233.062 69.2125Z" fill="white"/>
<path d="M336.655 204.883L303.603 171.831C302.952 171.184 302.181 170.672 301.333 170.325C300.484 169.977 299.576 169.8 298.659 169.804H298.44C296.435 169.873 294.532 170.707 293.122 172.134L191.076 274.166C190.413 274.842 189.928 275.672 189.663 276.582L169.797 333.873C169.147 336.034 172.431 338.746 174.288 338.746C174.407 338.747 174.526 338.736 174.642 338.71C176.224 338.343 223.684 321.33 231.968 318.837C232.863 318.569 233.679 318.084 234.341 317.424L336.345 215.406C337.708 214.057 338.531 212.256 338.661 210.342C338.737 209.342 338.597 208.337 338.251 207.395C337.905 206.453 337.361 205.596 336.655 204.883ZM227.271 308.243C214.884 311.965 195.49 320.581 184.755 323.78L200.215 281.25L227.271 308.243Z" fill="white"/>
</svg>
