<svg width="" height="" viewBox="0 0 199 151" fill="none" xmlns="http://www.w3.org/2000/svg">
<g clip-path="url(#clip0_4_52)">
<path d="M78.2667 1.46667C68 3.86667 61.7333 8.93334 58 17.7333C55.8667 22.8 56 22.9333 60.6667 32.8C64.9333 41.6 68.5333 46 89.0667 66.9333C115.6 94 142.8 118.4 153.867 125.2C158 127.6 165.333 131.2 170.267 132.933C178.133 135.733 180 136 185.2 134.667C192.667 132.8 198.933 129.6 198 128C197.6 127.333 195.333 127.467 192.667 128.133C184.133 130.533 170.8 125.067 154.667 112.4L146.667 106.267L154.267 97.4667C172.667 76 181.333 68.5333 189.867 66.8C192.133 66.2667 193.867 65.4667 193.6 65.0667C193.2 63.6 136 62.8 136 64.1333C136 64.8 137.2 65.3333 138.8 65.3333C143.6 65.3333 150.8 69.6 152.267 73.2C153.333 76 152.933 77.8667 150.133 83.3333C148.133 86.9333 144.8 92 142.667 94.5333L138.8 99.0667L127.067 88.2667C120.667 82.4 110.933 73.0667 105.6 67.7333L96 57.8667L104.533 52.2667C120.133 42 126.933 30.5333 123.867 19.7333C120.133 5.86667 97.6 -3.06666 78.2667 1.46667ZM97.3333 12.6667C105.333 16.8 107.867 29.2 102.267 37.4667C100.667 39.8667 96.6667 43.7333 93.4667 46L87.7333 50L82.2667 44C75.0667 35.8667 69.3333 26.8 69.3333 23.2C69.3333 19.7333 74 13.4667 77.8667 12C82.4 10.1333 93.2 10.5333 97.3333 12.6667Z" fill="white"/>
<path d="M44.9333 27.8667C43.2 36.6667 44 42.2667 48.1333 50.1333C50.4 54.5333 53.4667 59.4667 55.0667 61.2C57.4667 63.7333 57.6 64.5333 56 65.0667C52 66.4 41.7333 77.4667 38.6667 83.6C36 88.6667 35.3333 92 35.3333 99.3333C35.4667 111.2 38.8 118.533 48.5333 128.667C58.1333 138.533 65.4667 141.6 80.8 142.4C95.2 143.067 105.467 140.267 117.067 132.667L124.133 128.133L130.667 132.8C140.4 139.733 149.067 142.667 159.733 142.533L168.667 142.4L162.667 140.267C146.133 134 132.133 123.467 102.133 94.5333C66.2667 59.8667 53.3333 44 46.9333 26.6667C45.7333 23.4667 45.7333 23.4667 44.9333 27.8667ZM75.3333 83.0667C81.2 89.0667 92.5333 100.267 100.667 107.867L115.2 121.6L111.333 124.533C93.7333 137.467 71.8667 136 57.6 120.8C46.4 109.067 44.4 96.8 51.4667 84.4C54.1333 79.7333 61.8667 72.1333 64 72C64.4 72 69.4667 76.9333 75.3333 83.0667Z" fill="white"/>
<path d="M21.7333 85.7333C8.53333 99.6 8.53333 120.4 22 131.733C27.0667 136 37.7333 140.933 44.6667 142.133L50 142.933L44.5333 139.067C27.6 126.533 20.1333 106.533 25.4667 87.6C26.2667 84.6667 26.6667 82.1333 26.4 81.8667C26 81.6 24 83.3333 21.7333 85.7333Z" fill="white"/>
</g>
<defs>
<clipPath id="clip0_4_52">
<rect width="198.667" height="150.667" fill="white"/>
</clipPath>
</defs>
</svg>
