<svg width="" height="" viewBox="0 0 424 428" fill="none" xmlns="http://www.w3.org/2000/svg">
<rect width="424" height="428" fill="#1E1E1E"/>
<path d="M181.333 3.33336C138.133 10.1334 99.0667 29.6 67.4667 60C34.4 92 15.0667 126.4 5.06667 171.333C2.53333 182.667 2.13333 188.8 2 212.667C2 243.6 4 257.2 12.2667 282C36.1333 353.733 100.133 409.467 175.333 424C193.467 427.467 232.4 427.733 249.467 424.533C295.2 416 328 398.8 360.133 366.8C395.067 331.733 415.333 289.6 421.467 239.467C423.6 221.333 422.267 187.2 418.667 170.267C401.867 90.9333 343.867 28.1334 268.8 8.00002C243.733 1.33336 206.933 -0.666644 181.333 3.33336ZM240.667 12.1334C328.133 22.8 398.4 86.4 417.6 172.133C421.6 190.533 422 231.2 418.267 249.733C401.333 333.2 336.4 397.733 250.667 416.133C231.6 420.267 186.933 420.667 169.333 416.933C105.467 403.067 56.4 365.867 28.2667 310C-0.133333 253.333 -0.266667 186.533 28 128.533C52.4 78.1334 94.6667 40.6667 147.467 22.2667C177.6 11.7334 209.333 8.26669 240.667 12.1334Z" fill="white"/>
<path d="M193.733 24.5334C183.333 29.3334 184.533 43.7334 195.6 46C204.267 47.8667 208.667 50.1334 209.067 52.9334C210 59.0667 200.4 62.6667 197.067 57.3334C194.8 53.7334 188 53.6 188 57.2C188 64.6667 204 68.2667 211.2 62.5334C216.4 58.4 217.733 54.1334 215.467 48.6667C213.867 44.9334 212.533 43.8667 207.733 42.8C197.733 40.2667 195.6 39.3334 194.133 36.9334C190.8 31.7334 201.2 26.4 205.333 31.2C207.067 33.4667 214.667 34.1334 214.667 32.1334C214.667 31.3334 213.333 29.2 211.6 27.3334C208 23.0667 199.867 21.7334 193.733 24.5334Z" fill="white"/>
<path d="M233.333 27.8667C223.467 33.0667 219.467 48.2667 225.733 57.3333C230.8 64.9333 235.2 67.2 244 67.3333C256.267 67.3333 263.6 60.5333 264.8 47.8667C265.333 42 264.933 39.7333 262.4 35.4667C258.533 29.0667 251.867 25.3333 244 25.3333C240.667 25.3333 235.867 26.4 233.333 27.8667ZM253.6 35.7333C256.8 38.6667 257.733 40.6667 257.733 44.2667C257.733 58 247.067 65.2 236.4 58.6667C231.2 55.6 228.933 48.8 230.8 42C233.6 31.8667 245.467 28.6667 253.6 35.7333Z" fill="white"/>
<path d="M156.533 31.2C148.133 34.9333 145.6 43.3333 150.8 49.8666C153.2 52.9333 154.533 53.3333 161.467 53.3333C171.067 53.3333 174.667 54.9333 174.667 59.2C174.667 64.9333 168.267 67.3333 162.267 64.1333C159.733 62.8 157.867 62.6666 155.733 63.6L152.8 64.9333L156.267 68.4C160.4 72.5333 166.667 73.0666 174.133 70C179.867 67.6 182.933 61.4666 181.2 55.4666C179.467 49.6 176.533 48 167.733 48C161.733 48 159.333 47.3333 157.2 45.2C154.8 42.8 154.667 42.1333 156.4 39.6C158.667 36.1333 164.4 35.0666 166.8 37.7333C168.533 39.4666 174.133 39.3333 175.333 37.3333C175.733 36.8 174.933 34.9333 173.6 33.3333C170.667 29.7333 162.133 28.6666 156.533 31.2Z" fill="white"/>
<path d="M272.267 53.0667C264.533 69.8667 264.133 71.4667 266.267 72.9333C267.467 73.8667 268.933 74.6667 269.467 74.6667C269.867 74.6667 272.933 68.9333 276.133 62C279.333 55.0667 282.267 49.3333 282.8 49.3333C283.2 49.3333 284.667 56.9333 286 66.1333C288.133 81.3333 288.667 83.0667 291.6 84.4C293.333 85.0667 294.933 85.4667 295.2 85.2C295.467 84.9333 299.467 76.5333 304 66.6667C311.6 50 312 48.6667 309.867 47.0667C308.533 46.1333 307.067 45.3333 306.667 45.3333C306.133 45.3333 303.2 51.0667 300 58C296.8 65.0667 293.867 70.2667 293.333 69.7333C292.8 69.2 291.333 61.4667 290.133 52.6667C288.8 43.8667 287.067 36.2667 286.267 35.7333C282.133 33.0667 280.4 35.3333 272.267 53.0667Z" fill="white"/>
<path d="M130.8 41.2C128.8 42.5334 130.533 47.4667 142 72.2667C145.733 80.5334 146.267 80.9334 149.733 78.2667C151.867 76.8 151.333 75.0667 143.733 58.2667C139.2 48.2667 134.933 40 134.133 40C133.333 40 131.733 40.5334 130.8 41.2Z" fill="white"/>
<path d="M104 56.2667C92.8 62 88.6667 74.5333 94.5333 85.3333C102.667 100.533 124.533 99.7333 132.667 83.8667C134.8 79.8667 135.333 72 133.6 72C130.933 72 126.667 76.4 126.667 79.2C126.667 82.5333 122.267 87.2 117.333 89.0667C106 93.3333 93.8667 76.8 100.8 66.8C103.6 62.9333 110.667 59.8667 114.4 60.9333C116.133 61.3333 118.8 60.6667 120.933 59.3333L124.4 56.9333L121.2 55.2C116.4 52.5333 110.667 52.9333 104 56.2667Z" fill="white"/>
<path d="M321.067 58.2667C320 59.6 314.667 67.2 309.333 75.2C300.267 88.8 299.867 89.8667 302.133 91.6C303.467 92.5333 304.8 93.3333 305.2 93.3333C305.6 93.2 311.067 85.7333 317.2 76.6667C326.667 62.6667 328.133 59.7333 326.667 58C324.533 55.4667 323.6 55.4667 321.067 58.2667Z" fill="white"/>
<path d="M324 82C316.4 90.5334 310.533 97.6 310.8 97.7334C311.067 97.8667 314.8 101.2 318.933 105.067C326.933 112.4 328.933 113.333 330.133 110C330.667 108.667 328.933 106.133 325.333 102.933L319.6 97.8667L323.6 93.3334L327.733 88.6667L333.333 93.2C338.267 97.2 339.2 97.4667 340.933 95.7334C342.667 94 342.133 93.2 337.2 88.8L331.467 84L335.333 80C337.467 77.7334 339.6 76 340 76C340.533 76 343.333 78.1334 346.4 80.8C351.733 85.3334 354.667 85.7334 354.667 82C354.667 80.4 340 66.6667 338.267 66.6667C337.867 66.6667 331.467 73.6 324 82Z" fill="white"/>
<path d="M196 80.1333C145.333 86 99.4667 121.867 80.8 170.133C63.8667 214.133 69.6 263.467 96.2667 302.267C140.533 366.8 227.2 383.733 292.133 340.533C325.2 318.667 350.4 274.933 352.667 236L353.2 226L352 235.867C344.667 292.933 302.533 340.4 245.467 355.733C234.267 358.667 230 359.2 210.667 359.2C190.8 359.2 187.467 358.933 175.733 355.733C149.867 348.533 129.867 336.533 111.867 317.6C95.2 300 84.8 280.933 78.5333 256.533C76 246.667 75.4667 241.2 75.6 224.667C75.6 207.467 76 202.933 79.0667 191.733C96.6667 125.733 154.8 82.4 221.333 85.7333C256.533 87.4667 287.867 101.333 312.8 126C327.733 140.8 336.933 155.067 344.8 175.333C348.533 185.2 348.933 183.333 345.333 172.8C338.4 152.533 321.333 127.067 305.733 113.733C283.6 94.8 257.333 83.2 229.467 80C216.4 78.5333 210.133 78.5333 196 80.1333Z" fill="white"/>
<path d="M347.733 103.733C339.067 110.133 332.133 116 332 116.8C332 117.6 332.933 119.067 334 120C335.6 121.333 337.2 120.667 342.667 116.667C351.2 110.4 352.4 112.4 347.467 124.8L344 133.467L346.667 136.933L349.333 140.267L350.667 136.533C356.4 121.067 356.267 121.333 358.8 122.667C360.133 123.467 363.2 124 365.733 124C372.267 124 377.867 117.467 376.933 111.067C376.133 106.533 366.933 92.1333 364.667 92.1333C364 92.1333 356.267 97.3333 347.733 103.733ZM367.867 104.8C371.2 109.067 371.467 112.4 368.533 115.2C365.067 118.667 360.667 117.733 356.933 112.8L353.467 108.4L358.4 104.8C361.067 102.933 363.733 101.333 364.267 101.333C364.667 101.333 366.4 102.933 367.867 104.8Z" fill="white"/>
<path d="M51.2 107.333L48.9333 110.8L59.4667 126.133C65.2 134.533 70.8 142.667 71.8667 144.133C73.4667 146.4 73.4667 146.667 71.7333 146C70.5333 145.467 68.9333 147.333 66.9333 151.467C65.2 155.067 63.2 157.333 62.2667 156.933C61.3333 156.533 54 153.2 45.8667 149.6L30.9333 142.933L29.4667 146.267C28.1333 149.333 28.4 149.6 34.9333 152.667C38.8 154.4 47.4667 158.133 54 161.2L66 166.533L68.6667 160.933C70 157.867 72.8 152 74.8 147.867C78.2667 140.533 78.2667 140.4 75.8667 137.067C73.4667 133.733 73.4667 133.733 78.2667 126.933C82.8 120.4 83.2 120 87.8667 120.8C91.7333 121.333 92.9333 121.067 94.2667 118.8C96.1333 115.867 96.1333 115.867 67.3333 108C61.6 106.4 56 104.8 55.2 104.4C54.2667 104.133 52.5333 105.333 51.2 107.333ZM70.4 116.133C76.8 118 77.2 119.2 72.9333 124.533L69.8667 128.4L64.9333 121.733C59.3333 114.133 58.9333 112.8 62.4 113.867C63.6 114.133 67.2 115.2 70.4 116.133Z" fill="white"/>
<path d="M188.267 109.6C186.133 111.733 186.267 117.333 188.667 128C189.733 132.8 190.533 137.2 190.667 137.867C190.667 139.467 169.467 137.733 156.933 135.067C151.333 133.867 142.133 130.8 136.667 128.133C131.2 125.333 126.667 123.6 126.667 124C126.667 126.4 134.133 151.2 137.6 160.4C144.933 179.6 156.667 188.4 177.333 190.267C182.133 190.667 187.067 191.6 188.4 192.267C191.6 193.867 191.333 200.667 187.333 208.933C183.6 217.067 177.067 221.867 157.467 230.667C144.667 236.4 141.2 236.667 138.533 231.867C136.4 227.867 129.2 224 123.867 224C116.267 224 110.8 228.667 105.2 240C101.333 247.6 100.133 251.6 100.133 257.067C100 269.733 107.6 279.467 120.667 283.467C128.933 285.867 133.733 289.6 137.867 296.4C145.2 309.067 156.667 316.267 175.2 320C181.867 321.333 194.667 325.2 203.6 328.533C236.133 340.8 252.4 342.133 282.8 335.2C287.867 334 292 332.667 292 332.133C292 331.6 281.067 331.2 267.733 331.2C246.4 331.2 242 330.933 232.133 328.267C222.8 325.6 211.733 321.333 209.467 319.2C209.067 318.8 211.2 316.267 214 313.333L219.067 308.133L211.2 310.4C206.4 311.733 198.133 312.533 190 312.533C174.8 312.667 169.467 310.8 161.867 302.933C156.267 297.2 156 294.667 161.067 294.667C174.933 294.667 193.467 283.867 204.667 269.333C210.4 261.867 210.533 261.333 208.133 260C205.867 258.8 204.133 259.733 196.667 266.667C189.6 272.933 185.867 275.2 178.933 277.333C168.933 280.4 154.933 281.067 146.933 278.533L141.467 276.933L145.733 271.067C150 265.067 151.333 257.6 149.067 251.333C148.267 248.933 149.467 248.133 159.067 244.133C190.8 230.8 201.6 217.467 201.867 191.333C202 180.933 201.467 178.267 198.4 171.6C194.267 162.8 184.533 152.8 175.6 148C172.133 146.133 169.333 144.4 169.333 144C169.333 143.6 174.533 143.2 180.8 143.333C191.6 143.333 192.4 143.467 195.467 147.067C197.2 149.067 198.667 151.733 198.667 152.667C198.667 154.4 215.6 163.333 233.067 170.8C239.467 173.6 239.867 172.933 235.6 166.533C233.733 163.6 229.333 160.4 223.467 157.333C218.133 154.667 212.533 150.667 210.4 148C206.933 143.6 203.2 130.667 205.333 130.667C206 130.667 210.933 135.067 216.4 140.533C227.867 152.133 236.667 158 251.2 164C257.067 166.533 266.533 171.733 272.4 175.733C278.133 179.6 283.2 182.533 283.6 182.133C284.667 181.067 278.667 171.867 272.8 165.6C269.733 162.4 262.8 157.067 257.333 153.6C243.467 145.067 230.267 135.2 219.733 125.467C209.733 116.267 196.933 108 192.667 108C191.067 108 189.2 108.667 188.267 109.6ZM158 155.333C165.333 159.2 173.333 164.133 175.733 166C181.333 170.533 188.267 179.867 187.067 181.733C185.867 183.733 172.933 181.867 166.533 178.667C159.6 175.2 150 166.267 147.067 160.667C144.533 156 142.533 148 143.867 148C144.267 148.133 150.667 151.333 158 155.333ZM131.333 244C137.067 251.867 140.133 260.667 138.533 264.933C137.6 267.6 128.133 274.667 125.733 274.667C125.067 274.667 121.867 272.267 118.533 269.333C111.467 263.333 109.333 258.533 110.933 252.533C112.133 247.867 121.6 237.333 124.533 237.333C125.6 237.333 128.667 240.4 131.333 244Z" fill="white"/>
<path d="M124.933 247.467C124.133 251.867 127.2 258.667 130 258.667C133.2 258.667 132.4 251.333 128.933 247.2L125.733 243.467L124.933 247.467Z" fill="white"/>
<path d="M114.133 249.2C110.933 252.667 112.4 257.6 116.4 257.067C118.667 256.8 119.467 255.6 119.733 251.6C120.267 246 118 244.933 114.133 249.2Z" fill="white"/>
<path d="M222 120.8C225.467 123.6 256 138.267 271.867 144.8C285.733 150.533 295.867 158.4 298.8 165.6C299.733 168 303.467 173.333 307.2 177.333C315.333 186.4 319.2 194.667 322.133 210L324.533 222L326.267 216C329.2 206.4 328 191.467 323.733 182.667C317.867 170.8 294.8 144.267 286.667 140C282.267 137.733 222.8 118.667 220.4 118.667C219.867 118.667 220.533 119.733 222 120.8Z" fill="white"/>
<path d="M369.733 135.333C360 140.133 352 144.4 352 144.933C352 146.533 360.533 165.2 361.333 165.333C361.733 165.333 362.8 164.8 363.867 164.133C365.467 163.067 365.333 162 363.333 157.067C362.133 154 360.8 150.667 360.4 149.733C359.733 148.133 366.4 144 369.867 144C370.933 144 372.4 145.6 373.067 147.6C375.2 153.6 377.733 156.133 380 154.667C381.6 153.6 381.467 152.667 378.933 147.333C377.333 144 376 141.067 376 140.8C376 140.133 386.667 135.6 387.2 136.133C387.467 136.4 388.933 139.467 390.4 142.933C393.2 149.467 394 150.133 397.067 148.267C398.4 147.333 397.6 144.8 393.867 136.933C391.2 131.333 388.667 126.667 388.133 126.8C387.733 126.8 379.333 130.667 369.733 135.333Z" fill="white"/>
<path d="M23.4667 176.533L18.6667 182.4L22.2667 183.2C24.4 183.6 33.0667 184.933 41.7333 186.133C59.2 188.533 58.4 188.8 63.3333 179.733C65.3333 176.133 65.3333 176.133 61.0667 175.333C56.2667 174.533 29.6 170.667 28.8 170.667C28.5333 170.667 26.1333 173.333 23.4667 176.533Z" fill="white"/>
<path d="M380 173.333C370.8 174.667 363.2 175.867 362.933 175.867C362.533 176 370.533 188 371.067 188C372.933 188 408.4 182.667 408.8 182.4C409.733 181.333 400.533 170.8 398.667 170.933C397.6 170.933 389.2 172 380 173.333Z" fill="white"/>
<path d="M348.133 184.667C348.133 185.333 348.933 189.6 350 194C351.867 201.733 351.867 201.867 351.2 195.467C350.533 189.6 348.267 181.333 348.133 184.667Z" fill="white"/>
<path d="M17.3333 198.133C17.3333 200.533 23.2 212 24.5333 212C25.3333 212 33.4667 213.2 42.6667 214.533C51.8667 215.867 59.6 216.8 59.8667 216.533C60.5333 215.867 55.8667 202.667 54.9333 202.667C54.4 202.667 46.2667 201.467 36.6667 200C16.9333 197.067 17.3333 197.067 17.3333 198.133Z" fill="white"/>
<path d="M393.333 199.467C370.933 202.667 372.533 202 370.133 208.933C368.933 212.4 368 215.6 368 216C368 216.533 376 215.867 385.733 214.533C395.333 213.2 404 212 404.8 212C406.133 212 412 200.533 412 198.133C412 197.067 408 197.333 393.333 199.467Z" fill="white"/>
<path d="M352.533 214C352.533 220.533 352.667 223.467 352.933 220.4C353.2 217.333 353.2 211.867 352.933 208.4C352.667 204.933 352.533 207.333 352.533 214Z" fill="white"/>
<path d="M241.067 207.733C235.333 211.2 236.4 213.333 243.733 213.333C251.867 213.333 256 212.133 256 209.867C256 205.333 246.933 204 241.067 207.733Z" fill="white"/>
<path d="M22.6667 226.533C22.6667 228.133 24.1333 229.867 26.4 230.933C29.4667 232.4 30 233.6 30.4 239.067C30.8 244.667 30.5333 245.467 27.3333 246.933C25.2 247.867 24.1333 249.2 24.6667 250.4C25.0667 251.333 25.3333 252.667 25.3333 253.333C25.3333 254 32.4 251.333 41.0667 247.333C55.4667 240.8 56.6667 240 56.6667 236.533C56.6667 233.067 56.1333 232.8 43.3333 229.333C21.3333 223.467 22.6667 223.6 22.6667 226.533ZM43.3333 235.067L50 236.933L43.4667 239.867C36.4 242.933 34.6667 242.267 34.6667 236.267C34.6667 232.8 34.6667 232.8 43.3333 235.067Z" fill="white"/>
<path d="M375.067 228C370.933 229.733 369.467 233.2 369.067 242.133L368.667 250L376.667 250.8C401.333 253.467 400.933 253.467 401.733 250.667C402.533 247.733 400.4 246.667 393.867 246.667C387.067 246.667 388.133 243.2 396 239.733C400.4 237.733 402.933 235.6 403.467 233.6C404.8 228.933 403.333 228.667 396.533 232.533C391.6 235.2 390 235.733 389.067 234.4C388.533 233.467 388 232.133 388 231.6C388 230.667 379.6 226.533 378.4 226.8C378.133 226.8 376.667 227.333 375.067 228ZM383.867 236.267C384.4 237.733 384.667 240.533 384.267 242.267C383.733 245.067 383.067 245.467 378.8 245.067C375.067 244.8 373.867 244 373.6 241.733C372.533 234.4 381.467 229.733 383.867 236.267Z" fill="white"/>
<path d="M41.0667 259.067C33.0667 261.2 26.6667 263.467 26.6667 263.867C26.6667 264.267 27.2 265.6 28 266.667C28.9333 268.267 30.1333 268.4 34.9333 267.067C38.1333 266.133 41.0667 266 41.7333 266.533C42.2667 267.067 40.2667 270.4 37.2 273.733C32.8 278.8 31.8667 280.667 32.5333 283.467C33.4667 286.933 33.4667 286.933 38.8 280.8C44.1333 274.8 44.1333 274.8 46.6667 277.333C51.8667 282.533 61.7333 279.6 63.0667 272.533C64 267.2 60.1333 254.667 57.4667 254.8C56.2667 254.933 48.9333 256.8 41.0667 259.067ZM58 266.267C58.6667 270.133 58.4 271.6 56.5333 272.933C51.8667 276.267 48.1333 273.867 47.6 267.2C47.3333 264.267 48 263.333 50.6667 262.533C56.4 260.933 57.0667 261.2 58 266.267Z" fill="white"/>
<path d="M364.667 261.6C361.467 272.667 361.067 272.267 377.067 276.667C384.933 278.667 392 280.667 392.933 280.933C394.4 281.467 398.667 269.467 398.667 264.8C398.667 260.267 394.8 262.8 393.067 268.4C391.333 274.133 391.333 274.267 386.8 273.067C382.4 271.867 382.4 271.733 383.333 265.867C384 261.067 383.733 260 382.133 260C380.933 260 379.6 262.133 378.667 265.333C377.867 268.267 377.067 270.667 376.8 270.667C373.867 270.667 368 267.333 368.533 266C368.933 264.933 369.6 262 370.133 259.467C370.8 255.6 370.533 254.667 368.933 254.667C367.467 254.667 366 257.067 364.667 261.6Z" fill="white"/>
<path d="M358.667 280C357.867 281.333 357.733 282.8 358.4 283.2C362.533 285.733 387.467 294.667 388.8 294.133C393.467 292.4 389.733 289.467 375.333 283.733C360.933 278 359.867 277.733 358.667 280Z" fill="white"/>
<path d="M64.1333 281.2C62.8 282 62.6667 282.933 63.8667 285.067C64.6667 286.533 65.3333 288.4 65.3333 289.067C65.3333 289.733 59.6 293.067 52.6667 296.4C41.0667 302 40 302.8 41.3333 305.2C42.6667 307.733 43.2 307.6 55.4667 301.733C67.7333 295.733 68.4 295.6 70.1333 297.867C71.0667 299.333 72.1333 301.067 72.4 301.733C72.6667 302.533 73.8667 302.8 75.0667 302.267C77.0667 301.6 76.6667 300.133 72.2667 290.8C69.6 284.933 67.0667 280.133 66.6667 280.133C66.2667 280 65.2 280.533 64.1333 281.2Z" fill="white"/>
<path d="M350.8 296.933C346.667 304.267 345.6 307.467 346.667 308.533C347.733 309.6 348.933 308.933 351.067 306.133L354.133 302.267L366.933 309.2C379.333 315.867 379.867 316 380.667 313.333C381.2 311.733 381.333 310.267 381.067 310.133C380.933 309.867 375.333 306.933 368.933 303.467C356.933 296.933 356.667 296.667 359.2 290.533C359.733 289.2 359.467 288 358.267 287.6C356.933 287.067 354.667 290.133 350.8 296.933Z" fill="white"/>
<path d="M66.6667 312.133C59.7333 316.533 53.0666 320.667 52 321.333C50.2666 322.4 50.2666 322.8 52.1333 324.667C54.1333 326.8 55.3333 326.267 68.5333 318C81.0667 310.133 82.5333 308.8 81.0667 306.8C80.1333 305.6 79.3333 304.533 79.3333 304.4C79.3333 304.267 73.6 307.733 66.6667 312.133Z" fill="white"/>
<path d="M341.2 312.8C340.133 314.133 340 315.2 340.8 315.733C347.333 320.133 358.8 330.133 359.333 332.133C361.2 338.133 353.333 343.467 348 339.867C346.667 338.8 342.133 335.333 338.133 332.267C331.067 326.667 328 326 328 330C328 331.733 342 343.467 347.333 346.4C351.6 348.533 356.933 346.8 361.333 341.733C365.733 336.8 366.533 331.6 363.333 327.067C361.467 324.4 344.933 310.667 343.6 310.667C343.333 310.667 342.267 311.6 341.2 312.8Z" fill="white"/>
<path d="M76.9333 319.733C74.1333 322.8 74.1333 327.067 76.8 334.267C78.6667 338.933 78.6667 340.4 77.3333 342C75.0667 344.667 72.9333 344.533 70.1333 341.467C68.6667 339.867 68.1333 337.867 68.6667 335.733C69.2 333.6 68.8 331.867 67.4667 330.8C64.6667 328.4 62.6667 330.133 62.6667 334.8C62.6667 344.533 70.8 351.2 78.6667 348C83.6 346 85.0667 341.2 82.6667 335.467C79.7333 328.267 79.6 324.4 82 323.467C85.7333 322.133 89.7333 325.067 88.9333 328.8C88.6667 330.533 89.2 333.067 90.1333 334.267C91.8667 336.533 92.1333 336.533 94 334C96.6667 330.533 95.6 325.867 90.9333 320.933C86.8 316.667 80.2667 316 76.9333 319.733Z" fill="white"/>
<path d="M317.733 340.133C312.4 341.733 307.067 348 305.867 354C304.133 363.467 312.933 374 322.4 373.733C334.267 373.467 340.8 366.133 340.133 354.133C340 351.733 339.867 351.733 337.333 354C335.867 355.333 334.667 357.6 334.667 358.933C334.667 360.267 333.2 362.933 331.333 364.667C325.2 370.933 315.333 368.267 312 359.333C309.6 353.067 315.2 345.333 321.867 345.333C325.867 345.2 331.867 342 330.533 340.667C329.067 339.2 321.733 338.933 317.733 340.133Z" fill="white"/>
<path d="M97.3333 348.133C78.6667 359.2 79.3333 358.667 81.7333 360.933C83.2 362.533 84.2667 362.533 86.4 361.467C90.1333 359.467 90 359.467 95.2 364.133C99.0667 367.467 99.7333 368.8 99.2 371.867C98.6667 374.267 99.2 376.133 100.533 377.2C102.267 378.667 102.8 378.533 103.733 375.867C114.533 347.2 115.067 345.333 113.333 343.333C110.933 340.4 109.867 340.8 97.3333 348.133ZM104.8 356.667C103.467 360 102.133 362.667 101.6 362.667C101.2 362.667 99.4667 361.333 97.7333 359.733L94.6667 356.8L100.267 353.2C103.467 351.333 106.267 349.867 106.533 350.133C106.8 350.4 106 353.333 104.8 356.667Z" fill="white"/>
<path d="M118.4 368.8C114.133 376.4 110.667 383.333 110.667 383.867C110.667 385.2 114.8 387.067 115.6 386.133C116 385.867 118.533 381.2 121.2 376C124 370.667 126.667 366.933 126.933 367.467C127.333 368.133 128.133 374.533 128.667 381.733C129.467 392.4 130 394.933 132 396C134.133 397.2 135.067 396.267 138.533 390C140.8 386 144.533 379.333 146.8 375.2C149.733 370 150.533 367.333 149.6 366.4C147.067 363.867 144.667 366.133 140 375.2C137.467 380 134.933 384 134.533 384C134.133 384 133.333 378.133 132.8 371.067C131.2 350 128.8 349.6 118.4 368.8Z" fill="white"/>
<path d="M287.733 360.667C281.6 363.067 276 365.867 276 366.8C276 368.4 290.933 396 291.733 396C292.267 396 293.467 395.467 294.4 394.8C295.867 393.867 295.733 392.667 293.467 388.267C291.867 385.2 290.667 382.4 290.667 382C290.667 380.4 295.333 381.6 300.667 384.8C304.533 386.933 307.6 387.867 309.333 387.333C313.333 386 312.667 384.8 305.333 380.8C298.933 377.333 298.667 377.067 300.667 374.267C303.2 370.667 303.2 366.667 300.667 363.067C298.133 359.6 293.333 358.667 287.733 360.667ZM295.6 367.467C297.867 370.933 297.867 371.067 294 374.133C288.933 378.133 288.533 378.133 286 373.333C283.333 368.133 283.467 367.333 287.067 365.6C291.6 363.333 293.067 363.733 295.6 367.467Z" fill="white"/>
<path d="M256.267 374.267C255.6 375.6 254.933 381.733 254.8 387.733C254.667 393.867 254.133 401.333 253.867 404.267C253.333 408.933 253.467 409.6 255.333 408.8C256.533 408.4 258.133 408 258.8 408C259.467 408 260 406.267 260 404.133C260 400.533 260.667 400 266.4 398.267C272.133 396.533 272.8 396.533 274.533 398.8C276.267 401.2 282.667 402.4 282.667 400.267C282.667 399.733 278.133 393.2 272.533 385.6C262.4 371.867 258.8 369.333 256.267 374.267ZM266 386.667C268 389.6 269.467 392.267 269.2 392.533C268.933 392.8 266.667 393.467 264.267 394L259.867 394.933L260.267 388.133C260.533 384.4 261.067 381.333 261.467 381.333C262 381.333 264 383.733 266 386.667Z" fill="white"/>
<path d="M189.733 378.8C182.933 380.133 178.933 383.6 177.2 389.2C173.6 401.067 181.067 412 192.8 412C199.2 412 205.867 409.333 207.067 406.133C208.133 403.467 202.667 402.267 200 404.667C196.8 407.6 188.533 407.2 185.333 404C182.267 400.933 181.733 391.333 184.533 387.733C188.533 382.4 197.867 382.133 201.867 387.2C204 389.733 209.333 390.8 209.333 388.667C209.333 382.533 198.267 376.933 189.733 378.8Z" fill="white"/>
<path d="M236.4 384.533C237.2 392.667 236.4 393.333 226.4 393.333C221.733 393.333 221.333 393.067 221.333 389.6C221.333 383.333 219.867 380 217.2 380C214.267 380 214.267 379.2 216.133 398.267C217.6 412.4 217.867 413.333 220.667 413.333C223.333 413.333 223.467 412.8 222.933 406.533C222.267 398.533 223.333 397.333 231.467 397.333C237.6 397.333 238.667 398.933 238.667 407.867C238.667 411.333 239.067 412.133 240.8 411.467C242 411.067 243.333 410.667 243.867 410.667C244.8 410.667 243.733 395.333 242 382.933C241.333 378.4 240.667 377.333 238.4 377.333C235.867 377.333 235.733 377.867 236.4 384.533Z" fill="white"/>
<path d="M150.933 384.933C151.2 386.267 154.667 388.133 160.267 390.133C167.867 392.667 169.2 392.8 169.867 391.067C170.267 390 170.667 388.933 170.667 388.667C170.667 388 154.4 382.667 152.267 382.667C151.333 382.667 150.667 383.6 150.933 384.933Z" fill="white"/>
</svg>
