<svg width="" height="" viewBox="0 0 2108 2108" fill="none" xmlns="http://www.w3.org/2000/svg">
<g clip-path="url(#clip0_14_203)">
<rect width="2108" height="2108" fill="white"/>
<path d="M0 1057.5V2115H1076H2152V1057.5V8.79169e-06H1076H0V1057.5ZM678.4 24.7173C703.6 28.4583 719.867 34.337 744.667 48.4994C782 70.0101 815.467 96.8651 859.467 140.955C889.467 170.883 907.733 191.593 940.4 232.476C953.6 249.044 964.8 262.939 965.2 263.473C965.6 264.008 975.733 263.607 987.6 262.538C1039.73 258.129 1144.53 258.797 1200 263.874C1351.33 277.769 1483.73 323.196 1600.67 401.222C1625.07 417.522 1637.73 427.008 1672.93 455.199L1705.07 480.985H1768.93C1928.13 481.119 1976.8 486.864 2033.6 512.65C2087.47 537.1 2119.87 579.187 2124.53 630.625C2128 668.035 2108.53 716.668 2068.67 770.245C2039.87 809.258 2011.6 837.984 1964.4 876.73C1948.67 889.556 1940 897.572 1940 899.176C1940 900.512 1941.33 910.265 1942.93 920.82C1945.73 938.322 1946 944.468 1946 993.369C1946 1111.74 1932.4 1179.88 1889.87 1276.35C1859.33 1345.42 1829.2 1395.13 1790 1440.95C1757.87 1478.63 1708.67 1527.66 1674 1556.52C1640.93 1584.18 1600.67 1612.9 1557.07 1640.03C1529.73 1656.99 1531.2 1652.32 1536.8 1705.49C1539.6 1731.68 1540.4 1746.91 1540.93 1788.33C1542.27 1879.32 1536.8 1943.58 1524.67 1980.72C1514.27 2012.26 1499.2 2038.31 1480 2057.68C1455.07 2083.07 1426.13 2095.23 1390.53 2095.09C1367.2 2095.09 1348 2091.22 1324.67 2082C1280 2064.36 1236.27 2031.76 1182.13 1975.92C1136 1928.35 1094.67 1878.11 1055.6 1822.13L1040 1799.95L1031.6 1799.15C1027.07 1798.62 1006.53 1797.42 986 1796.35C882.133 1790.6 824.667 1779.78 762.4 1753.73C682 1720.19 541.333 1644.04 514.133 1619.45C510.4 1615.98 500.4 1608.36 492 1602.48C483.6 1596.47 470.933 1586.45 464 1580.04C439.867 1557.99 406.8 1520.18 383.467 1487.71L370.533 1470.08L314.267 1469.28C254.267 1468.48 231.2 1466.87 197.333 1460.99C137.067 1450.44 94.2667 1431.6 65.2 1402.87C44.8 1382.57 32.6667 1357.05 29.3333 1327.12C23.7333 1278.22 48.1333 1220.63 99.4667 1161.71C124.267 1133.26 163.733 1094.91 193.067 1070.73C212.133 1054.83 222.267 1045.34 224.8 1040.53C226.133 1037.86 226.667 1031.71 226.667 1017.15C226.667 975.332 239.2 895.167 248.667 876.462C251.2 871.385 252.4 866.308 253.333 856.021C254.933 838.919 255.467 836.915 264.4 819.279C268.4 811.396 279.067 787.881 287.867 767.038C323.867 682.866 354.4 630.893 401.2 574.51C420.267 551.53 434.267 536.299 473.733 496.083C493.333 476.042 509.333 458.539 509.333 457.203C509.333 456.001 508.133 441.705 506.667 425.539C496.933 319.722 496.4 263.473 504 203.216C517.467 98.7356 557.867 37.8108 622.667 24.7173C634.533 22.3124 662.667 22.3124 678.4 24.7173Z" fill="#1C1C1C"/>
<path d="M643.6 112.23C617.2 116.906 599.867 151.778 592.8 215.107C586.533 270.554 586.667 357.933 593.067 388.396L595.333 399.352L616.667 386.659C679.467 348.982 760.533 314.778 851.733 287.255L865.333 283.113L857.067 272.158C852.533 266.145 845.6 257.327 841.467 252.517C829.6 238.489 772.533 181.171 757.467 168.078C710.267 127.06 670.533 107.554 643.6 112.23Z" fill="#1C1C1C"/>
<path d="M1016.4 287.255C1007.47 287.79 995.067 288.725 988.667 289.259C977.733 290.195 977.333 290.328 978.933 292.733C990.267 308.766 1036.8 378.643 1044.67 391.469C1153.6 566.093 1266.4 796.833 1352.8 1021.43C1370.27 1066.99 1387.47 1110.14 1388.53 1111.34C1393.73 1116.55 1643.47 990.429 1722 942.865C1782.53 906.257 1860.93 853.348 1877.33 838.117C1893.87 822.886 1893.33 815.538 1872.4 766.905C1853.2 722.28 1839.07 694.356 1820.27 664.027C1759.33 565.826 1653.73 465.22 1545.6 402.291C1428.13 334.018 1300.67 297.142 1147.33 287.255C1124.8 285.786 1041.2 285.786 1016.4 287.255Z" fill="#1C1C1C"/>
<path d="M864.667 313.175C792.133 331.88 714.533 363.411 647.333 401.89C500 486.062 384.133 612.321 324.133 754.212C312.4 781.735 305.6 801.509 292.667 845.733C286.533 866.709 278.267 894.499 274.133 907.593C265.333 936.185 262.133 950.08 259.467 973.996C253.2 1027.97 250.667 1126.71 255.333 1134.19C256 1135.26 256.4 1141 256.133 1146.88C255.6 1170.8 275.6 1267.53 287.6 1297.99C294.4 1315.5 307.733 1340.35 323.2 1364.4L336.667 1385.51H369.6C407.2 1385.51 430.8 1384.17 473.333 1379.36C636 1361.32 880.933 1301.73 1090.67 1229.19C1177.33 1199.12 1309.73 1149.02 1314.27 1144.48C1316 1142.74 1240.8 949.278 1214.13 886.884C1166.67 775.99 1067.07 579.587 1011.6 487.666C968.933 417.121 910.667 329.876 895.6 314.244C888.8 307.296 887.733 307.296 864.667 313.175ZM788 527.881C827.733 537.768 852.133 567.162 861.333 616.062C862.133 619.803 863.333 631.026 864 641.047C869.867 718.806 838 817.007 777.067 908.261C754 942.731 728.933 973.06 698.533 1002.72C674.4 1026.24 658 1039.73 633.333 1056.16C552.4 1110.27 472.667 1112.41 436.667 1061.64C420.8 1039.2 414.4 1018.22 412.133 981.745C409.333 938.723 415.733 894.232 430.933 850.008C453.067 785.476 485.067 727.624 528.4 674.048C600.267 584.932 679.067 531.489 748.667 524.675C758.133 523.74 777.733 525.343 788 527.881Z" fill="#1C1C1C"/>
<path d="M1792.67 574.644C1795.6 578.652 1801.87 587.203 1806.67 593.884C1821.87 614.593 1831.73 630.091 1846.93 656.545C1863.87 686.072 1895.87 749.803 1907.2 776.524C1911.6 786.545 1915.87 795.096 1916.93 795.497C1918 795.897 1920.4 795.497 1922.4 794.428C1926.8 792.156 1969.2 749.402 1983.47 732.835C2019.33 691.283 2040.8 650.934 2036.13 633.966C2031.07 615.661 2006.8 595.487 1978.93 586.535C1943.6 575.045 1897.07 569.3 1833.47 568.231L1787.47 567.429L1792.67 574.644Z" fill="#1C1C1C"/>
<path d="M1897.87 921.354C1891.33 925.496 1865.07 942.865 1839.33 959.967C1766 1008.73 1709.6 1042.4 1631.33 1083.82C1582.27 1109.87 1546.13 1127.51 1455.73 1169.73C1433.87 1179.88 1416 1188.84 1416 1189.77C1416 1192.71 1423.2 1218.9 1442 1285.3C1475.33 1402.74 1489.33 1459.12 1509.33 1558.53C1516 1591.53 1521.73 1619.72 1522.13 1621.05C1523.2 1624.66 1526.53 1623.46 1544.93 1613.17C1580.67 1593.13 1604.4 1577.23 1630 1555.85C1674 1519.25 1737.07 1459.39 1760.8 1431.73C1799.07 1387.24 1838.67 1324.31 1859.87 1274.34C1867.73 1255.77 1871.07 1246.15 1879.33 1217.96C1883.33 1204.33 1890.67 1180.95 1895.47 1165.99C1909.07 1124.04 1911.07 1107.34 1913.33 1017.42C1914.93 955.558 1914 913.872 1910.93 913.872C1910.27 913.872 1904.53 917.213 1897.87 921.354Z" fill="#1C1C1C"/>
<path d="M227.333 1161.85C215.333 1171.2 170 1217.29 157.867 1232.53C130.667 1266.73 116.667 1294.39 116.8 1314.03C116.8 1325.65 119.6 1331.66 129.733 1341.01C151.733 1361.06 197.867 1374.15 272 1381.36C310.8 1385.1 315.867 1385.37 316.667 1384.04C317.6 1382.57 314.4 1376.15 299.067 1349.7C272.933 1304.54 259.733 1266.46 248 1203.13C242.4 1172.8 238.133 1155.7 236.267 1155.7C235.733 1155.7 231.733 1158.51 227.333 1161.85Z" fill="#1C1C1C"/>
<path d="M1330.67 1223.31C1326.67 1225.18 1304.8 1234.13 1282 1243.21C1135.6 1301.73 912.667 1372.01 768 1405.41C630.667 1437.08 489.2 1460.46 414.667 1463.8C390.533 1464.87 387.2 1465.54 387.733 1469.14C388.4 1473.02 398.4 1487.58 411.6 1503.75C478.667 1586.05 590.533 1662.21 729.867 1720.46C766.8 1735.82 801.333 1748.65 817.733 1752.92C846 1760.14 848.8 1760.27 1000 1760.27C1147.33 1760.27 1163.33 1759.74 1175.87 1754.13C1183.87 1750.65 1193.6 1748.25 1213.33 1744.91C1230.93 1742.1 1244.67 1738.09 1251.33 1734.22C1257.6 1730.48 1280.53 1722.86 1305.6 1716.18C1318.27 1712.84 1332 1708.3 1336 1706.16C1363.6 1691.6 1368.93 1689.46 1416.67 1673.16C1432.8 1667.68 1446.4 1662.74 1447.07 1662.21C1448 1661.27 1440.67 1616.91 1433.2 1579.24C1415.47 1489.32 1386.53 1372.55 1360.53 1285.97C1349.87 1250.56 1339.87 1219.83 1338.93 1219.97C1338.4 1219.97 1334.67 1221.44 1330.67 1223.31Z" fill="#1C1C1C"/>
<path d="M1430.67 1701.49C1396.93 1717.12 1265.07 1754.39 1192.67 1768.82C1175.73 1772.16 1141.2 1776.97 1134 1776.97C1131.73 1776.97 1144.27 1793.94 1175.47 1833.22C1234.67 1907.64 1305.07 1971.91 1354.27 1996.62C1381.73 2010.39 1399.07 2010.25 1415.33 1995.96C1427.07 1985.67 1439.47 1961.49 1443.2 1941.58C1450.27 1904.17 1455.2 1798.22 1452.13 1750.92C1450.4 1723.93 1446.27 1695.34 1444.27 1695.61C1443.73 1695.61 1437.6 1698.28 1430.67 1701.49Z" fill="#1C1C1C"/>
</g>
<defs>
<clipPath id="clip0_14_203">
<rect width="2108" height="2108" fill="white"/>
</clipPath>
</defs>
</svg>
