<?xml version="1.0" standalone="no"?>
<!DOCTYPE svg PUBLIC "-//W3C//DTD SVG 20010904//EN"
 "http://www.w3.org/TR/2001/REC-SVG-20010904/DTD/svg10.dtd">
<svg version="1.0" xmlns="http://www.w3.org/2000/svg"
 width="1875.000000pt" height="1875.000000pt" viewBox="0 0 1875.000000 1875.000000"
 preserveAspectRatio="xMidYMid meet">

<g transform="translate(0.000000,1875.000000) scale(0.100000,-0.100000)"
fill="#FFFFFF" stroke="none">
<path d="M9260 18364 c-237 -30 -465 -117 -662 -250 -706 -479 -1309 -1601
-1742 -3239 -30 -115 -62 -244 -72 -285 -9 -41 -19 -78 -23 -82 -3 -4 -103 31
-221 78 -905 358 -1693 569 -2430 651 -219 24 -657 24 -835 -1 -451 -61 -775
-200 -1019 -436 -390 -377 -496 -931 -311 -1635 53 -205 178 -544 256 -698
l20 -37 -72 -81 c-131 -150 -216 -297 -279 -488 -256 -770 217 -1591 1020
-1766 115 -25 364 -31 487 -11 99 15 251 59 338 96 l43 18 98 -111 c158 -178
364 -399 535 -572 l158 -160 -196 -205 c-1280 -1336 -2095 -2549 -2374 -3533
-173 -612 -130 -1110 129 -1501 65 -98 239 -270 343 -339 581 -384 1504 -414
2747 -91 437 113 1106 339 1491 503 41 17 75 30 77 29 1 -2 25 -94 53 -205
266 -1060 626 -1963 1028 -2577 179 -274 415 -547 603 -699 302 -244 603 -361
930 -361 648 0 1235 482 1753 1439 120 222 291 601 382 845 l28 75 146 1 c176
1 290 20 456 75 221 74 398 183 564 350 166 166 276 343 350 562 21 65 41 121
44 123 3 3 74 -15 158 -41 497 -149 932 -243 1379 -296 224 -27 686 -33 860
-11 456 57 796 198 1044 433 195 184 316 406 378 692 30 138 33 493 5 660
-118 700 -524 1517 -1214 2440 -355 474 -736 918 -1231 1435 l-185 193 60 62
c196 202 379 398 550 588 l195 216 87 -38 c192 -82 370 -114 595 -106 219 8
362 44 561 142 253 125 479 351 608 610 262 524 161 1157 -250 1571 l-68 69
62 147 c114 270 196 538 245 804 18 99 21 157 22 349 0 201 -3 243 -22 332
-58 266 -164 472 -336 651 -112 117 -228 201 -381 277 -218 109 -442 169 -743
201 -179 20 -605 14 -811 -10 -731 -86 -1484 -292 -2409 -658 -139 -55 -255
-98 -256 -97 -2 2 -29 105 -60 229 -71 285 -166 620 -252 882 -582 1786 -1377
2762 -2274 2792 -69 2 -141 2 -160 0z m296 -564 c570 -143 1151 -988 1595
-2320 122 -366 276 -917 343 -1231 2 -11 -30 -31 -123 -74 -508 -236 -1194
-598 -1736 -915 -113 -66 -206 -120 -208 -120 -2 0 -87 49 -188 108 -573 338
-1283 712 -1804 952 -88 41 -162 75 -164 77 -7 4 110 461 186 727 364 1280
866 2229 1383 2615 105 78 263 157 361 181 103 26 254 26 355 0z m-5371 -3119
c671 -92 1419 -303 2225 -628 207 -84 230 -94 230 -108 0 -7 -9 -55 -19 -106
-140 -682 -277 -1738 -336 -2589 -8 -124 -18 -253 -21 -286 l-5 -62 -162 -135
c-317 -264 -688 -592 -1007 -889 l-154 -145 -161 166 c-192 198 -299 312 -461
492 l-121 134 69 90 c244 320 332 749 236 1145 -110 450 -440 813 -880 968
-263 93 -587 100 -845 17 -43 -14 -81 -25 -85 -25 -9 0 -103 225 -149 360
-173 500 -184 897 -32 1168 42 77 148 191 223 242 157 106 344 169 610 206
149 20 653 11 845 -15z m11181 9 c255 -20 454 -69 617 -150 103 -52 159 -94
240 -179 73 -77 145 -211 172 -316 54 -212 37 -483 -49 -798 -51 -183 -174
-507 -193 -507 -5 0 -30 7 -57 15 -157 48 -426 61 -601 30 -856 -153 -1354
-1045 -1036 -1856 43 -109 119 -244 178 -317 27 -33 33 -48 27 -62 -13 -26
-306 -349 -548 -602 l-208 -218 -156 149 c-291 276 -693 631 -1047 925 -104
87 -196 164 -203 170 -8 8 -19 102 -32 286 -65 881 -179 1771 -321 2504 -15
83 -27 151 -26 152 1 1 87 36 192 79 1228 503 2323 752 3051 695z m-7946
-1085 c513 -245 1495 -775 1473 -795 -4 -4 -80 -54 -168 -110 -518 -332 -1178
-795 -1715 -1203 -90 -69 -166 -124 -168 -122 -4 4 32 408 59 655 51 477 130
1034 210 1472 21 120 39 220 39 223 0 9 10 5 270 -120z m4194 58 c29 -99 140
-806 195 -1243 25 -199 42 -354 96 -912 3 -32 4 -58 1 -58 -2 0 -114 82 -248
183 -525 394 -1171 841 -1693 1172 -12 8 15 27 132 94 421 240 875 480 1243
658 140 68 258 123 262 123 4 0 9 -8 12 -17z m-8249 -1085 c229 -34 486 -173
650 -350 258 -279 365 -658 289 -1026 -82 -401 -379 -736 -769 -866 -134 -45
-241 -59 -410 -53 -187 6 -302 33 -461 112 -736 360 -881 1333 -282 1890 267
248 609 350 983 293z m12581 -4 c103 -18 201 -51 306 -104 121 -61 201 -121
308 -230 498 -507 421 -1336 -164 -1752 -98 -70 -255 -143 -373 -175 -90 -25
-113 -27 -293 -27 -180 0 -203 2 -295 27 -55 15 -149 51 -210 81 -732 360
-881 1324 -290 1885 269 255 635 362 1011 295z m-6276 -227 c727 -461 1612
-1092 2262 -1613 26 -20 26 -21 38 -250 28 -545 23 -1871 -8 -2386 l-7 -107
-155 -122 c-648 -509 -1436 -1066 -2139 -1511 -215 -136 -236 -147 -255 -135
-12 8 -113 72 -226 143 -711 446 -1548 1040 -2231 1581 l-156 124 -6 152 c-24
580 -29 1153 -17 1672 7 297 16 586 19 642 l6 102 205 162 c688 543 1497 1114
2225 1573 172 108 201 123 219 114 12 -6 113 -70 226 -141z m3090 -2304 c244
-213 482 -429 651 -590 l108 -103 -192 -177 c-307 -285 -796 -718 -803 -710
-1 1 3 160 8 352 9 337 3 1310 -9 1388 -3 20 -2 37 3 37 5 0 110 -88 234 -197z
m-6535 -692 c0 -809 0 -810 -20 -792 -11 10 -108 94 -215 188 -198 173 -413
368 -575 521 l-89 85 84 80 c221 208 798 725 810 727 3 0 5 -364 5 -809z
m-1120 -537 c283 -266 659 -597 990 -873 88 -74 163 -139 166 -145 4 -6 9 -69
13 -141 39 -759 190 -1964 340 -2720 19 -93 31 -173 28 -177 -4 -3 -115 -49
-247 -101 -859 -341 -1585 -541 -2255 -624 -207 -25 -669 -25 -828 0 -320 51
-535 147 -683 305 -79 85 -123 157 -160 264 -246 721 427 2102 1760 3613 153
173 310 343 520 563 159 166 186 190 200 180 9 -7 79 -72 156 -144z m9049 -99
c1271 -1335 2088 -2614 2230 -3494 73 -449 -28 -774 -299 -966 -406 -288
-1198 -305 -2230 -49 -243 61 -714 200 -730 215 -2 3 -18 57 -34 119 -68 260
-187 473 -369 659 -131 133 -303 255 -430 306 -23 10 -42 23 -42 29 0 7 16
118 35 247 77 523 139 1090 175 1594 12 160 24 304 28 321 6 25 53 70 247 231
357 298 715 615 1090 966 l80 75 39 -36 c21 -21 115 -118 210 -217z m-6724
-1817 c387 -282 961 -675 1348 -922 107 -69 120 -80 105 -91 -38 -25 -423
-241 -635 -355 -450 -243 -1074 -549 -1088 -533 -9 10 -77 387 -125 693 -65
413 -133 968 -169 1380 -9 96 -18 197 -21 223 l-6 49 203 -155 c112 -84 286
-214 388 -289z m4459 157 c-31 -341 -79 -746 -128 -1085 l-46 -325 -50 -2
c-264 -13 -519 -85 -716 -203 l-80 -49 -152 81 c-168 89 -480 261 -654 360
l-112 64 192 124 c458 295 1012 681 1494 1041 147 109 267 198 269 196 1 -1
-7 -92 -17 -202z m-2235 -1614 c217 -127 601 -341 743 -416 l73 -37 -26 -42
c-46 -73 -112 -219 -143 -313 -141 -431 -67 -913 197 -1288 107 -152 297 -327
448 -411 35 -20 66 -39 69 -44 2 -4 -26 -84 -64 -176 -426 -1047 -933 -1678
-1428 -1780 -103 -22 -261 -14 -358 16 -634 198 -1263 1226 -1709 2790 -89
311 -180 675 -173 692 2 7 92 53 198 102 515 238 1343 678 1844 980 50 30 94
55 99 55 4 1 108 -57 230 -128z m2216 -25 c321 -49 616 -227 812 -491 64 -85
167 -286 192 -373 15 -51 14 -54 -2 -47 -9 4 -75 28 -147 55 -304 112 -717
284 -1062 443 -230 106 -563 270 -563 277 0 4 36 24 79 43 203 93 460 127 691
93z m-370 -936 c415 -189 818 -352 1205 -491 218 -78 203 -59 159 -194 -33
-99 -91 -217 -157 -315 -65 -98 -221 -253 -321 -320 -429 -287 -969 -290
-1394 -7 -329 219 -531 577 -549 972 -11 255 40 467 167 689 l42 73 312 -152
c171 -84 412 -199 536 -255z"/>
<path d="M9258 11179 c-809 -62 -1502 -671 -1667 -1465 -84 -405 -36 -809 138
-1179 98 -206 214 -367 387 -536 215 -208 424 -336 702 -429 548 -183 1139
-105 1617 215 389 260 656 638 770 1090 42 166 55 273 55 459 0 376 -104 715
-315 1031 -271 404 -705 693 -1177 784 -93 18 -345 44 -388 40 -8 -1 -63 -6
-122 -10z m492 -286 c156 -32 333 -102 477 -189 713 -431 981 -1322 623 -2070
-158 -328 -426 -594 -762 -754 -202 -96 -377 -139 -604 -147 l-152 -6 -28 49
c-40 68 -46 164 -14 229 27 55 88 120 160 168 58 39 109 59 203 77 77 15 90
40 91 170 0 83 -3 103 -27 153 -35 76 -120 160 -271 266 -190 135 -253 212
-264 322 -6 67 15 120 96 240 86 127 106 182 100 283 -4 85 -25 125 -74 138
-16 4 -87 3 -157 -2 -71 -6 -144 -8 -162 -4 -110 20 -103 151 19 339 93 143
217 267 377 380 134 94 211 206 225 326 l6 58 32 -5 c17 -3 65 -12 106 -21z"/>
</g>
</svg>
