<?xml version="1.0" standalone="no"?>
<!DOCTYPE svg PUBLIC "-//W3C//DTD SVG 20010904//EN"
 "http://www.w3.org/TR/2001/REC-SVG-20010904/DTD/svg10.dtd">
<svg version="1.0" xmlns="http://www.w3.org/2000/svg"
 width="318.000000pt" height="321.000000pt" viewBox="0 0 318.000000 321.000000"
 preserveAspectRatio="xMidYMid meet">

<g transform="translate(0.000000,321.000000) scale(0.100000,-0.100000)"
fill="#000000" stroke="none">
<path d="M1360 3185 c-324 -51 -617 -197 -854 -425 -248 -240 -393 -498 -468
-835 -19 -85 -22 -131 -23 -310 0 -232 15 -334 77 -520 179 -538 659 -956
1223 -1065 136 -26 428 -28 556 -4 343 64 589 193 830 433 262 263 414 579
460 955 16 136 6 392 -21 519 -126 595 -561 1066 -1124 1217 -188 50 -464 65
-656 35z m445 -66 c656 -80 1183 -557 1327 -1200 30 -138 33 -443 5 -582 -127
-626 -614 -1110 -1257 -1248 -143 -31 -478 -34 -610 -6 -479 104 -847 383
-1058 802 -213 425 -214 926 -2 1361 183 378 500 659 896 797 226 79 464 105
699 76z"/>
<path d="M1453 3026 c-78 -36 -69 -144 14 -161 65 -14 98 -31 101 -52 7 -46
-65 -73 -90 -33 -17 27 -68 28 -68 1 0 -56 120 -83 174 -40 39 31 49 63 32
104 -12 28 -22 36 -58 44 -75 19 -91 26 -102 44 -25 39 53 79 84 43 13 -17 70
-22 70 -7 0 6 -10 22 -23 36 -27 32 -88 42 -134 21z"/>
<path d="M1750 3001 c-74 -39 -104 -153 -57 -221 38 -57 71 -74 137 -75 92 0
147 51 156 146 4 44 1 61 -18 93 -29 48 -79 76 -138 76 -25 0 -61 -8 -80 -19z
m152 -59 c24 -22 31 -37 31 -64 0 -103 -80 -157 -160 -108 -39 23 -56 74 -42
125 21 76 110 100 171 47z"/>
<path d="M1174 2976 c-63 -28 -82 -91 -43 -140 18 -23 28 -26 80 -26 72 0 99
-12 99 -44 0 -43 -48 -61 -93 -37 -19 10 -33 11 -49 4 l-22 -10 26 -26 c31
-31 78 -35 134 -12 43 18 66 64 53 109 -13 44 -35 56 -101 56 -45 0 -63 5 -79
21 -18 18 -19 23 -6 42 17 26 60 34 78 14 13 -13 55 -12 64 3 3 4 -3 18 -13
30 -22 27 -86 35 -128 16z"/>
<path d="M2042 2812 c-58 -126 -61 -138 -45 -149 9 -7 20 -13 24 -13 3 0 26
43 50 95 24 52 46 95 50 95 3 0 14 -57 24 -126 16 -114 20 -127 42 -137 13 -5
25 -8 27 -6 2 2 32 65 66 139 57 125 60 135 44 147 -10 7 -21 13 -24 13 -4 0
-26 -43 -50 -95 -24 -53 -46 -92 -50 -88 -4 4 -15 62 -24 128 -10 66 -23 123
-29 127 -31 20 -44 3 -105 -130z"/>
<path d="M981 2901 c-15 -10 -2 -47 84 -233 28 -62 32 -65 58 -45 16 11 12 24
-45 150 -34 75 -66 137 -72 137 -6 0 -18 -4 -25 -9z"/>
<path d="M780 2788 c-84 -43 -115 -137 -71 -218 61 -114 225 -108 286 11 16
30 20 89 7 89 -20 0 -52 -33 -52 -54 0 -25 -33 -60 -70 -74 -85 -32 -176 92
-124 167 21 29 74 52 102 44 13 -3 33 2 49 12 l26 18 -24 13 c-36 20 -79 17
-129 -8z"/>
<path d="M2408 2773 c-8 -10 -48 -67 -88 -127 -68 -102 -71 -110 -54 -123 10
-7 20 -13 23 -13 3 1 44 57 90 125 71 105 82 127 71 140 -16 19 -23 19 -42 -2z"/>
<path d="M2430 2595 c-57 -64 -101 -117 -99 -118 2 -1 30 -26 61 -55 60 -55
75 -62 84 -37 4 10 -9 29 -36 53 l-43 38 30 34 31 35 42 -34 c37 -30 44 -32
57 -19 13 13 9 19 -28 52 l-43 36 29 30 c16 17 32 30 35 30 4 0 25 -16 48 -36
40 -34 62 -37 62 -9 0 12 -110 115 -123 115 -3 0 -51 -52 -107 -115z"/>
<path d="M1470 2609 c-380 -44 -724 -313 -864 -675 -127 -330 -84 -700 116
-991 332 -484 982 -611 1469 -287 248 164 437 492 454 784 l4 75 -9 -74 c-55
-428 -371 -784 -799 -899 -84 -22 -116 -26 -261 -26 -149 0 -174 2 -262 26
-194 54 -344 144 -479 286 -125 132 -203 275 -250 458 -19 74 -23 115 -22 239
0 129 3 163 26 247 132 495 568 820 1067 795 264 -13 499 -117 686 -302 112
-111 181 -218 240 -370 28 -74 31 -60 4 19 -52 152 -180 343 -297 443 -166
142 -363 229 -572 253 -98 11 -145 11 -251 -1z"/>
<path d="M2608 2432 c-65 -48 -117 -92 -118 -98 0 -6 7 -17 15 -24 12 -10 24
-5 65 25 64 47 73 32 36 -61 l-26 -65 20 -26 20 -25 10 28 c43 116 42 114 61
104 10 -6 33 -10 52 -10 49 0 91 49 84 97 -6 34 -75 142 -92 142 -5 0 -63 -39
-127 -87z m151 -8 c25 -32 27 -57 5 -78 -26 -26 -59 -19 -87 18 l-26 33 37 27
c20 14 40 26 44 26 3 0 16 -12 27 -26z"/>
<path d="M384 2405 l-17 -26 79 -115 c43 -63 85 -124 93 -135 12 -17 12 -19
-1 -14 -9 4 -21 -10 -36 -41 -13 -27 -28 -44 -35 -41 -7 3 -62 28 -123 55
l-112 50 -11 -25 c-10 -23 -8 -25 41 -48 29 -13 94 -41 143 -64 l90 -40 20 42
c10 23 31 67 46 98 26 55 26 56 8 81 -18 25 -18 25 18 76 34 49 37 52 72 46
29 -4 38 -2 48 15 14 22 14 22 -202 81 -43 12 -85 24 -91 27 -7 2 -20 -7 -30
-22z m144 -66 c48 -14 51 -23 19 -63 l-23 -29 -37 50 c-42 57 -45 67 -19 59 9
-2 36 -10 60 -17z"/>
<path d="M1412 2388 c-16 -16 -15 -58 3 -138 8 -36 14 -69 15 -74 0 -12 -159
1 -253 21 -42 9 -111 32 -152 52 -41 21 -75 34 -75 31 0 -18 56 -204 82 -273
55 -144 143 -210 298 -224 36 -3 73 -10 83 -15 24 -12 22 -63 -8 -125 -28 -61
-77 -97 -224 -163 -96 -43 -122 -45 -142 -9 -16 30 -70 59 -110 59 -57 0 -98
-35 -140 -120 -29 -57 -38 -87 -38 -128 -1 -95 56 -168 154 -198 62 -18 98
-46 129 -97 55 -95 141 -149 280 -177 50 -10 146 -39 213 -64 244 -92 366
-102 594 -50 38 9 69 19 69 23 0 4 -82 7 -182 7 -160 0 -193 2 -267 22 -70 20
-153 52 -170 68 -3 3 13 22 34 44 l38 39 -59 -17 c-36 -10 -98 -16 -159 -16
-114 -1 -154 13 -211 72 -42 43 -44 62 -6 62 104 0 243 81 327 190 43 56 44
60 26 70 -17 9 -30 2 -86 -50 -53 -47 -81 -64 -133 -80 -75 -23 -180 -28 -240
-9 l-41 12 32 44 c32 45 42 101 25 148 -6 18 3 24 75 54 238 100 319 200 321
396 1 78 -3 98 -26 148 -31 66 -104 141 -171 177 -26 14 -47 27 -47 30 0 3 39
6 86 5 81 0 87 -1 110 -28 13 -15 24 -35 24 -42 0 -13 127 -80 258 -136 48
-21 51 -16 19 32 -14 22 -47 46 -91 69 -40 20 -82 50 -98 70 -26 33 -54 130
-38 130 5 0 42 -33 83 -74 86 -87 152 -131 261 -176 44 -19 115 -58 159 -88
43 -29 81 -51 84 -48 8 8 -37 77 -81 124 -23 24 -75 64 -116 90 -104 64 -203
138 -282 211 -75 69 -171 131 -203 131 -12 0 -26 -5 -33 -12z m-227 -343 c55
-29 115 -66 133 -80 42 -34 94 -104 85 -118 -9 -15 -106 -1 -154 23 -52 26
-124 93 -146 135 -19 35 -34 95 -24 95 3 -1 51 -25 106 -55z m-200 -665 c43
-59 66 -125 54 -157 -7 -20 -78 -73 -96 -73 -5 0 -29 18 -54 40 -53 45 -69 81
-57 126 9 35 80 114 102 114 8 0 31 -23 51 -50z"/>
<path d="M937 1354 c-6 -33 17 -84 38 -84 24 0 18 55 -8 86 l-24 28 -6 -30z"/>
<path d="M856 1341 c-24 -26 -13 -63 17 -59 17 2 23 11 25 41 4 42 -13 50 -42
18z"/>
<path d="M1665 2304 c26 -21 255 -131 374 -180 104 -43 180 -102 202 -156 7
-18 35 -58 63 -88 61 -68 90 -130 112 -245 l18 -90 13 45 c22 72 13 184 -19
250 -44 89 -217 288 -278 320 -33 17 -479 160 -497 160 -4 0 1 -8 12 -16z"/>
<path d="M2773 2195 c-73 -36 -133 -68 -133 -72 0 -12 64 -152 70 -153 3 0 11
4 19 9 12 8 11 16 -4 53 -9 23 -19 48 -22 55 -5 12 45 43 71 43 8 0 19 -12 24
-27 16 -45 35 -64 52 -53 12 8 11 15 -8 55 -12 25 -22 47 -22 49 0 5 80 39 84
35 2 -2 13 -25 24 -51 21 -49 27 -54 50 -40 10 7 4 26 -24 85 -20 42 -39 77
-43 76 -3 0 -66 -29 -138 -64z"/>
<path d="M176 1886 l-36 -44 27 -6 c16 -3 81 -13 146 -22 131 -18 125 -20 162
48 15 27 15 27 -17 33 -36 6 -236 35 -242 35 -2 0 -20 -20 -40 -44z"/>
<path d="M2850 1910 c-69 -10 -126 -19 -128 -19 -3 -1 57 -91 61 -91 14 0 280
40 283 42 7 8 -62 87 -76 86 -8 0 -71 -8 -140 -18z"/>
<path d="M2611 1825 c0 -5 6 -37 14 -70 14 -58 14 -59 9 -11 -5 44 -22 106
-23 81z"/>
<path d="M130 1724 c0 -18 44 -104 54 -104 6 0 67 -9 136 -19 69 -10 127 -17
129 -15 5 5 -30 104 -37 104 -4 0 -65 9 -137 20 -148 22 -145 22 -145 14z"/>
<path d="M2950 1714 c-168 -24 -156 -19 -174 -71 -9 -26 -16 -50 -16 -53 0 -4
60 1 133 11 72 10 137 19 143 19 10 0 54 86 54 104 0 8 -30 6 -140 -10z"/>
<path d="M2644 1605 c0 -49 1 -71 3 -48 2 23 2 64 0 90 -2 26 -3 8 -3 -42z"/>
<path d="M1808 1652 c-43 -26 -35 -42 20 -42 61 0 92 9 92 26 0 34 -68 44
-112 16z"/>
<path d="M170 1511 c0 -12 11 -25 28 -33 23 -11 27 -20 30 -61 3 -42 1 -48
-23 -59 -16 -7 -24 -17 -20 -26 3 -7 5 -17 5 -22 0 -5 53 15 118 45 108 49
117 55 117 81 0 26 -4 28 -100 54 -165 44 -155 43 -155 21z m155 -64 l50 -14
-49 -22 c-53 -23 -66 -18 -66 27 0 26 0 26 65 9z"/>
<path d="M2813 1500 c-31 -13 -42 -39 -45 -106 l-3 -59 60 -6 c185 -20 182
-20 188 1 6 22 -10 30 -59 30 -51 0 -43 26 16 52 33 15 52 31 56 46 10 35 -1
37 -52 8 -37 -20 -49 -24 -56 -14 -4 7 -8 17 -8 21 0 7 -63 38 -72 36 -2 0
-13 -4 -25 -9z m66 -62 c4 -11 6 -32 3 -45 -4 -21 -9 -24 -41 -21 -28 2 -37 8
-39 25 -8 55 59 90 77 41z"/>
<path d="M308 1267 c-60 -16 -108 -33 -108 -36 0 -3 4 -13 10 -21 7 -12 16
-13 52 -3 24 7 46 8 51 4 4 -4 -11 -29 -34 -54 -33 -38 -40 -52 -35 -73 7 -26
7 -26 47 20 40 45 40 45 59 26 39 -39 113 -17 123 36 7 40 -22 134 -42 133 -9
-1 -64 -15 -123 -32z m127 -54 c5 -29 3 -40 -11 -50 -35 -25 -63 -7 -67 43 -2
22 3 29 23 35 43 12 48 10 55 -28z"/>
<path d="M2735 1248 c-24 -83 -27 -80 93 -113 59 -15 112 -30 119 -32 11 -4
43 86 43 121 0 34 -29 15 -42 -27 -13 -43 -13 -44 -47 -35 -33 9 -33 10 -26
54 5 36 3 44 -9 44 -9 0 -19 -16 -26 -40 -6 -22 -12 -40 -14 -40 -22 0 -66 25
-62 35 3 8 8 30 12 49 5 29 3 36 -9 36 -11 0 -22 -18 -32 -52z"/>
<path d="M2690 1110 c-6 -10 -7 -21 -2 -24 31 -19 218 -86 228 -82 35 13 7 35
-101 78 -108 43 -116 45 -125 28z"/>
<path d="M481 1101 c-10 -6 -11 -13 -2 -29 6 -11 11 -25 11 -30 0 -5 -43 -30
-95 -55 -87 -42 -95 -48 -85 -66 10 -19 14 -18 106 26 92 45 97 46 110 29 7
-11 15 -24 17 -29 2 -6 11 -8 20 -4 15 5 12 16 -21 86 -20 44 -39 80 -42 80
-3 1 -11 -3 -19 -8z"/>
<path d="M2631 983 c-31 -55 -39 -79 -31 -87 8 -8 17 -3 33 18 l23 29 96 -52
c93 -50 97 -51 103 -31 4 12 5 23 3 24 -1 2 -43 24 -91 50 -90 49 -92 51 -73
97 4 10 2 19 -7 22 -10 4 -27 -19 -56 -70z"/>
<path d="M500 869 c-52 -33 -102 -64 -110 -69 -13 -8 -13 -11 1 -25 15 -16 24
-12 123 50 94 59 105 69 94 84 -7 9 -13 17 -13 18 0 1 -43 -25 -95 -58z"/>
<path d="M2559 864 c-8 -10 -9 -18 -3 -22 49 -33 135 -108 139 -123 14 -45
-45 -85 -85 -58 -10 8 -44 34 -74 57 -53 42 -76 47 -76 17 0 -13 105 -101 145
-123 32 -16 72 -3 105 35 33 37 39 76 15 110 -14 20 -138 123 -148 123 -2 0
-10 -7 -18 -16z"/>
<path d="M577 812 c-21 -23 -21 -55 -1 -109 14 -35 14 -46 4 -58 -17 -20 -33
-19 -54 4 -11 12 -15 27 -11 43 4 16 1 29 -9 37 -21 18 -36 5 -36 -30 0 -73
61 -123 120 -99 37 15 48 51 30 94 -22 54 -23 83 -5 90 28 10 58 -12 52 -40
-2 -13 2 -32 9 -41 13 -17 15 -17 29 2 20 26 12 61 -23 98 -31 32 -80 37 -105
9z"/>
<path d="M2383 659 c-40 -12 -80 -59 -89 -104 -13 -71 53 -150 124 -148 89 2
138 57 133 147 -1 18 -2 18 -21 1 -11 -10 -20 -27 -20 -37 0 -10 -11 -30 -25
-43 -46 -47 -120 -27 -145 40 -18 47 24 105 74 105 30 1 75 25 65 35 -11 11
-66 13 -96 4z"/>
<path d="M730 599 c-140 -83 -135 -79 -117 -96 11 -12 19 -12 35 -4 28 15 27
15 66 -20 29 -25 34 -35 30 -58 -4 -18 0 -32 10 -40 13 -11 17 -10 24 10 81
215 85 229 72 244 -18 22 -26 19 -120 -36z m56 -64 c-10 -25 -20 -45 -24 -45
-3 0 -16 10 -29 22 l-23 22 42 27 c24 14 45 25 47 23 2 -2 -4 -24 -13 -49z"/>
<path d="M888 444 c-32 -57 -58 -109 -58 -113 0 -10 31 -24 37 -17 3 2 22 37
42 76 21 40 41 68 43 64 3 -5 9 -53 13 -107 6 -80 10 -99 25 -107 16 -9 23 -2
49 45 17 30 45 80 62 111 22 39 28 59 21 66 -19 19 -37 2 -72 -66 -19 -36 -38
-66 -41 -66 -3 0 -9 44 -13 97 -12 158 -30 161 -108 17z"/>
<path d="M2158 505 c-46 -18 -88 -39 -88 -46 0 -12 112 -219 118 -219 4 0 13
4 20 9 11 7 10 16 -7 49 -12 23 -21 44 -21 47 0 12 35 3 75 -21 29 -16 52 -23
65 -19 30 10 25 19 -30 49 -48 26 -50 28 -35 49 19 27 19 57 0 84 -19 26 -55
33 -97 18z m59 -51 c17 -26 17 -27 -12 -50 -38 -30 -41 -30 -60 6 -20 39 -19
45 8 58 34 17 45 14 64 -14z"/>
<path d="M1922 403 c-5 -10 -10 -56 -11 -101 -1 -46 -5 -102 -7 -124 -4 -35
-3 -40 11 -34 9 3 21 6 26 6 5 0 9 13 9 29 0 27 5 31 48 44 43 13 48 13 61 -4
13 -18 61 -27 61 -11 0 4 -34 53 -76 110 -76 103 -103 122 -122 85z m73 -93
c15 -22 26 -42 24 -44 -2 -2 -19 -7 -37 -11 l-33 -7 3 51 c2 28 6 51 9 51 4 0
19 -18 34 -40z"/>
<path d="M1423 369 c-51 -10 -81 -36 -94 -78 -27 -89 29 -171 117 -171 48 0
98 20 107 44 8 20 -33 29 -53 11 -24 -22 -86 -19 -110 5 -23 23 -27 95 -6 122
30 40 100 42 130 4 16 -19 56 -27 56 -11 0 46 -83 88 -147 74z"/>
<path d="M1773 326 c6 -61 0 -66 -75 -66 -35 0 -38 2 -38 28 0 47 -11 72 -31
72 -22 0 -22 6 -8 -137 11 -106 13 -113 34 -113 20 0 21 4 17 51 -5 60 3 69
64 69 46 0 54 -12 54 -79 0 -26 3 -32 16 -27 9 3 19 6 23 6 7 0 -1 115 -14
208 -5 34 -10 42 -27 42 -19 0 -20 -4 -15 -54z"/>
<path d="M1132 323 c2 -10 28 -24 70 -39 57 -19 67 -20 72 -7 3 8 6 16 6 18 0
5 -122 45 -138 45 -7 0 -12 -7 -10 -17z"/>
</g>
</svg>
