<svg width="" height="" viewBox="0 0 171 171" fill="none" xmlns="http://www.w3.org/2000/svg">
<path d="M88.2667 43.6C81.7333 55.8667 74.4 69.7333 71.8667 74.2667C69.4667 78.9333 67.2 82.6667 66.8 82.6667C66.4 82.6667 63.0667 76.9333 59.4667 70C52.6667 57.2 50.1333 54.5333 47.2 57.6C44 60.9333 -0.133336 144.533 0.266664 146.533C0.666664 148.4 9.6 148.667 85.3333 148.667C169.467 148.667 170 148.667 170 146C170 142.133 150.4 105.333 148.4 105.333C145.2 105.333 146.667 109.6 155.333 126C160.133 135.067 164 142.8 164 143.2C164 143.6 149.2 144 131.067 144H98L84.1333 116.933C70.6667 90.8 70.1333 89.7333 71.8667 85.6L73.6 81.4667L76.9333 85.3333C78.8 87.6 81.0667 89.3333 82 89.3333C82.9333 89.3333 86.4 86.2667 89.6 82.5333L95.4667 75.7333L106.533 88.5333C113.067 96.1333 118.533 101.333 120 101.333C121.333 101.333 125.067 98.4 128.133 94.6667C131.2 91.0667 134.133 88 134.667 88C135.2 88 136.4 89.7333 137.333 91.8667C139.067 96.1333 142.4 98.2667 143.333 95.6C144 94.1333 122.533 51.6 110.4 30C103.067 16.9333 102.267 17.4667 88.2667 43.6ZM122.4 64L131.867 82.1333L126.533 88.4C123.6 91.8667 120.667 94.6667 120.133 94.6667C119.467 94.6667 114.133 88.9333 108.133 82C102.133 75.0667 96.5333 69.3333 95.8667 69.3333C95.0667 69.3333 91.6 72.4 88.1333 76.1333L81.8667 82.8L79.3333 80C76.4 76.8 75.7333 78.4 94.8 42.8L102.933 27.7333L107.867 36.8C110.667 41.8667 117.067 54.1333 122.4 64ZM64.6667 90.4L79.0667 117.6L75.6 121.067L72 124.533L68 120.667C64.9333 117.733 63.6 117.2 62.4 118.4C61.2 119.6 61.8667 121.067 65.3333 124.667C70.6667 130.133 73.0667 130.533 77.3333 126C78.9333 124.267 80.9333 123.067 81.6 123.467C82.6667 124.133 92 141.867 92 143.333C92 143.733 72.8 144 49.3333 144C25.8667 144 6.66666 143.6 6.66666 143.2C6.66666 142.8 10.6667 134.933 15.4667 125.867L24.4 109.467L28.6667 112.667C34.5333 117.2 36.4 116.933 41.3333 110.533L45.7333 105.2L49.4667 108.8C52.8 112 53.3333 112.133 54.1333 110.133C55.0667 107.733 48.9333 100 46.1333 100C45.3333 100 42.4 102.4 39.3333 105.333L34 110.667L30.4 107.6L26.6667 104.667L38.1333 83.6C44.4 72 49.7333 62.6667 50 62.9333C50.1333 63.2 56.8 75.6 64.6667 90.4Z" fill="white"/>
</svg>
