<svg width="" height="" viewBox="0 0 171 171" fill="none" xmlns="http://www.w3.org/2000/svg">
<g clip-path="url(#clip0_3_7)">
<path d="M87.7333 54.8C90.9333 55.3333 98.2667 58.6667 104 62C113.6 67.4667 115.333 68 123.6 68C141.067 68.1333 162.267 72.4 168 77.0667L170.933 79.4667L168.533 90.6667C165.867 103.067 163.333 106.667 157.467 106.667C154.8 106.667 152.933 107.733 151.333 110.133C148.4 114.667 140.8 117.733 135.2 116.667C132.667 116.267 129.2 114.133 126.8 111.333L122.8 106.667H87.0667H51.3333L47.6 111.333C43.0667 116.933 37.2 118.4 30.1333 115.467C27.4667 114.4 24.2667 111.733 23.0667 109.733C21.6 107.2 17.3333 104.267 10.4 101.067L-2.68221e-07 96.1333V82C-2.68221e-07 69.6 0.266666 67.7333 2.8 65.2C4.8 63.2 6.4 62.6667 8.4 63.3333C15.8667 65.7333 21.0667 65.3333 33.2 61.3333C54.9333 54.2667 73.7333 52 87.7333 54.8ZM58.8 64.1333C54 64.8 43.6 67.6 35.6 70.1333C25.4667 73.4667 19.2 74.8 15.2 74.4L9.33333 74V82.4V90.6667L15.0667 93.4667L20.8 96.2667L25.6 91.4667C29.4667 87.6 31.4667 86.6667 35.4667 86.6667C41.4667 86.6667 48.6667 90.6667 50 94.5333C50.8 97.3333 51.6 97.3333 87.3333 97.3333C123.067 97.3333 123.867 97.3333 124.667 94.5333C126 90.6667 133.2 86.6667 139.2 86.6667C143.6 86.6667 145.2 87.6 149.6 92.1333C152.4 95.0667 155.6 97.2 156.533 96.9333C159.2 95.8667 160.667 84 158.4 82.5333C153.467 79.4667 140.533 78.1333 107.467 77.4667C76.4 76.8 71.4667 76.4 70.2667 74.5333C69.4667 73.3333 69.3333 71.3333 69.7333 70.1333C70.4 68.4 72.6667 68 82.8 68C95.8667 68 96.6667 67.4667 88.4 64.6667C82.2667 62.4 70.4 62.1333 58.8 64.1333ZM133.333 98C130.933 100.933 132.8 106.533 136.667 107.467C142 108.8 145.867 104.4 143.867 98.9333C142.533 95.4667 136 94.8 133.333 98ZM30.5333 99.6C28.9333 104 33.0667 108.667 37.7333 107.467C41.8667 106.533 43.8667 101.067 41.2 97.8667C38.8 94.9333 31.8667 96 30.5333 99.6Z" fill="white"/>
</g>
<defs>
<clipPath id="clip0_3_7">
<rect width="170.667" height="170.667" fill="white" transform="matrix(-1 0 0 1 170.667 0)"/>
</clipPath>
</defs>
</svg>
